<?xml version="1.0" standalone="no"?>
<!DOCTYPE svg PUBLIC "-//W3C//DTD SVG 20010904//EN"
 "http://www.w3.org/TR/2001/REC-SVG-20010904/DTD/svg10.dtd">
<svg version="1.0" xmlns="http://www.w3.org/2000/svg"
 width="880.000000pt" height="1280.000000pt" viewBox="0 0 880.000000 1280.000000"
 preserveAspectRatio="xMidYMid meet">
<metadata>
Created by potrace 1.15, written by Peter Selinger 2001-2017
</metadata>
<g transform="translate(0.000000,1280.000000) scale(0.100000,-0.100000)"
fill="#000000" stroke="none">
<path d="M4480 12794 c-829 -50 -1223 -194 -1305 -479 -35 -119 -2 -229 100
-330 166 -166 528 -262 1069 -284 553 -23 978 32 1332 170 177 69 356 205 405
308 34 71 32 161 -6 230 -37 67 -117 139 -206 186 -141 74 -411 147 -670 181
-120 15 -570 26 -719 18z m410 -144 c364 -19 558 -51 722 -119 130 -55 200
-135 200 -230 0 -195 -257 -321 -777 -382 -168 -20 -573 -17 -725 4 -478 68
-782 176 -846 299 -48 93 52 223 240 312 119 57 286 98 469 115 121 12 494 12
717 1z"/>
<path d="M2354 12080 c-11 -4 -34 -24 -51 -43 -78 -89 -103 -257 -83 -555 25
-369 19 -467 -55 -908 -73 -432 -106 -712 -127 -1061 -7 -130 -16 -213 -22
-213 -21 0 -738 362 -911 460 -203 115 -412 248 -560 354 -55 40 -108 76 -118
79 -52 19 21 -65 138 -160 160 -129 509 -339 885 -533 300 -155 455 -248 519
-314 77 -79 93 -82 -379 71 -701 226 -1056 359 -1379 517 -167 82 -176 52 -14
-44 270 -161 745 -371 1128 -498 420 -139 630 -223 675 -268 13 -14 12 -15
-10 -10 -14 3 -142 22 -285 41 -880 120 -1167 176 -1568 305 -71 23 -131 39
-135 36 -23 -24 203 -142 393 -204 229 -76 472 -125 935 -187 360 -49 563 -81
633 -102 53 -15 60 -114 39 -543 -6 -146 -17 -537 -22 -870 -6 -333 -17 -695
-25 -805 -39 -541 -66 -957 -80 -1225 -17 -323 -21 -376 -65 -807 -64 -626
-80 -925 -61 -1209 17 -263 46 -404 112 -535 82 -164 236 -278 465 -343 260
-74 558 -122 979 -158 208 -18 1580 -18 1870 0 540 33 1087 96 1460 169 185
36 426 107 522 154 94 46 120 73 195 195 l53 87 155 -6 c259 -9 404 -58 510
-175 97 -105 141 -245 141 -442 0 -148 -20 -241 -82 -369 -106 -222 -269 -369
-595 -534 -422 -213 -800 -322 -1789 -517 -610 -120 -1048 -169 -1390 -157
-211 8 -283 22 -596 116 -329 98 -370 106 -544 106 -201 0 -310 -37 -398 -135
-110 -122 -109 -307 3 -484 113 -179 311 -284 635 -338 102 -17 809 -17 1045
0 1177 85 2287 324 3005 648 803 361 1267 883 1292 1454 15 354 -121 713 -362
956 -218 219 -502 344 -840 370 l-90 6 -1 382 c0 274 -5 439 -17 586 -28 322
-154 1880 -182 2245 -66 867 -92 1320 -102 1752 -7 342 -6 346 64 357 21 3
211 20 423 36 212 17 439 34 505 40 66 5 149 11 185 12 48 2 66 7 68 18 2 13
-72 15 -622 15 -343 0 -628 3 -632 8 -14 13 40 58 111 92 87 42 243 86 440
125 230 45 564 133 570 149 3 8 3 16 0 19 -2 3 -85 -14 -182 -36 -222 -52
-393 -87 -548 -112 -139 -23 -396 -52 -402 -46 -7 7 79 72 137 104 64 36 286
131 456 197 124 48 397 185 509 256 59 37 64 42 54 62 -7 12 -13 23 -14 25 -1
1 -67 -32 -146 -74 -164 -87 -346 -173 -507 -238 -102 -43 -404 -146 -463
-160 l-26 -6 -7 213 c-16 488 -44 962 -68 1122 -6 39 -14 309 -18 600 -8 564
-14 624 -61 722 -22 46 -69 83 -104 83 -73 -1 -207 -120 -314 -279 -78 -118
-128 -216 -202 -399 -31 -79 -59 -146 -62 -148 -3 -3 -28 9 -55 26 -126 78
-371 159 -601 200 -191 34 -397 49 -816 61 -629 17 -987 -2 -1655 -87 -151
-19 -284 -33 -297 -30 -31 8 -57 50 -84 136 -27 89 -146 328 -209 420 -101
149 -197 212 -276 180z m1282 -1471 c165 -23 306 -92 419 -204 129 -128 189
-284 188 -490 -2 -351 -189 -589 -533 -676 -72 -18 -103 -21 -220 -17 -116 5
-147 10 -222 35 -120 41 -190 85 -279 174 -132 131 -184 267 -184 484 0 220
52 354 189 491 167 166 394 238 642 203z m2124 -19 c192 -55 351 -181 428
-340 93 -191 105 -374 36 -582 -94 -287 -379 -462 -724 -445 -357 17 -618 237
-670 567 -57 365 121 675 452 786 43 14 99 30 126 34 78 15 268 4 352 -20z
m-1136 -1294 c64 -27 83 -84 46 -144 -60 -97 -189 -94 -234 6 -29 65 -8 113
59 137 51 18 87 18 129 1z m-44 -382 c0 -29 55 -127 100 -177 25 -28 71 -70
104 -94 67 -49 62 -53 -28 -19 -73 28 -131 62 -165 100 l-24 26 -57 -54 c-51
-49 -122 -93 -176 -110 -12 -4 16 32 65 82 82 84 161 204 161 246 0 9 5 16 10
16 6 0 10 -7 10 -16z m611 -1956 c107 -54 279 -243 345 -381 10 -20 21 -36 24
-35 4 2 35 35 69 73 224 254 438 321 587 183 188 -173 57 -481 -403 -943 -139
-140 -323 -298 -368 -315 -40 -15 -88 4 -123 48 -46 58 -219 353 -297 507
-171 335 -209 589 -115 775 63 124 152 152 281 88z m-2557 -1005 c214 -569
397 -885 607 -1055 127 -102 269 -144 408 -119 135 24 215 82 241 176 12 43
12 59 -2 127 -22 103 -74 208 -198 398 -114 175 -186 314 -229 447 -47 145
-46 180 2 48 66 -182 99 -240 310 -542 252 -360 213 -645 -95 -693 -135 -21
-304 24 -420 111 -199 149 -379 416 -526 779 -46 114 -182 503 -182 519 1 16
26 -42 84 -196z m3715 120 c-91 -151 -153 -236 -239 -327 -116 -123 -219 -186
-433 -265 -226 -84 -286 -122 -328 -207 -17 -36 -20 -56 -16 -96 13 -110 96
-228 186 -267 168 -72 436 -34 702 100 183 91 351 212 507 363 56 54 102 95
102 90 0 -22 -79 -124 -146 -191 -166 -164 -414 -316 -642 -392 -179 -60 -365
-73 -488 -33 -130 43 -225 141 -266 275 -38 126 -8 214 95 281 61 40 129 67
324 130 173 54 252 102 373 225 47 47 130 146 184 219 100 134 126 163 85 95z
m-1929 -2826 c36 -13 100 -41 144 -61 l78 -36 47 41 c25 23 66 51 91 62 40 18
50 19 109 8 65 -12 305 -100 297 -108 -2 -3 -61 5 -131 17 -178 32 -246 26
-349 -28 -44 -23 -86 -42 -95 -42 -8 0 -56 20 -106 45 -122 60 -191 75 -378
82 -87 3 -154 9 -150 14 22 21 153 39 263 35 93 -3 127 -8 180 -29z"/>
<path d="M3561 10468 c-85 -42 -135 -152 -111 -246 27 -108 100 -167 205 -167
164 1 262 173 185 325 -51 99 -176 139 -279 88z"/>
<path d="M5225 10490 c-111 -29 -165 -101 -165 -217 0 -71 25 -127 73 -170
104 -91 263 -58 328 68 37 73 20 199 -34 257 -47 50 -140 79 -202 62z"/>
<path d="M1082 8468 c-85 -41 -123 -119 -103 -215 21 -107 87 -187 276 -341
80 -65 121 -106 123 -121 5 -35 -58 -88 -178 -150 -119 -61 -206 -137 -248
-216 -23 -44 -27 -62 -27 -140 0 -116 23 -164 121 -261 55 -56 93 -82 165
-118 161 -80 267 -90 519 -51 52 8 116 15 141 15 l46 0 7 58 c9 78 26 774 26
1064 l0 237 -97 55 c-249 139 -459 207 -641 206 -67 -1 -97 -6 -130 -22z"/>
<path d="M7760 8281 c-147 -27 -328 -105 -444 -192 l-69 -51 7 -147 c3 -80 13
-229 21 -331 8 -102 26 -342 41 -535 14 -192 31 -361 37 -375 20 -42 52 -52
147 -45 111 8 168 21 260 57 191 76 431 281 506 433 82 166 49 300 -96 394
-47 31 -79 42 -152 56 -95 17 -148 36 -168 60 -17 21 -2 42 118 169 136 142
176 213 176 306 0 98 -28 141 -119 181 -55 24 -187 34 -265 20z"/>
</g>
</svg>
